HIERARCHY
ROOT joint_0
{
	OFFSET 0.000000 0.000000 0.000000
	CHANNELS 6 Xposition Yposition Zposition Zrotation Yrotation Xrotation 
	JOINT joint_1
	{
		OFFSET 1.363060 -1.794630 0.839290
		CHANNELS 3 Zrotation Yrotation Xrotation
		JOINT joint_2
		{
			OFFSET 2.448110 -6.726130 0.000000
			CHANNELS 3 Zrotation Yrotation Xrotation
			JOINT joint_3
			{
				OFFSET 2.562200 -7.039590 0.000000
				CHANNELS 3 Zrotation Yrotation Xrotation
				JOINT joint_4
				{
					OFFSET 0.157640 -0.433110 2.322550
					CHANNELS 3 Zrotation Yrotation Xrotation
					End Site
					{
						OFFSET 0.000000 0.000000 0.000000
					}
				}
			}
		}
	}
	JOINT joint_5
	{
		OFFSET -1.305520 -1.794630 0.839290
		CHANNELS 3 Zrotation Yrotation Xrotation
		JOINT joint_6
		{
			OFFSET -2.542530 -6.985550 0.000000
			CHANNELS 3 Zrotation Yrotation Xrotation
			JOINT joint_7
			{
				OFFSET -2.568260 -7.056230 0.000000
				CHANNELS 3 Zrotation Yrotation Xrotation
				JOINT joint_8
				{
					OFFSET -0.164730 -0.452590 2.363150
					CHANNELS 3 Zrotation Yrotation Xrotation
					End Site
					{
						OFFSET 0.000000 0.000000 0.000000
					}
				}
			}
		}
	}
	JOINT joint_9
	{
		OFFSET 0.028270 2.035590 -0.193380
		CHANNELS 3 Zrotation Yrotation Xrotation
		JOINT joint_10
		{
			OFFSET 0.056720 2.048850 -0.042750
			CHANNELS 3 Zrotation Yrotation Xrotation
			JOINT joint_11
			{
				OFFSET -0.054170 1.746240 0.172020
				CHANNELS 3 Zrotation Yrotation Xrotation
				JOINT joint_12
				{
					OFFSET 0.104070 1.761360 -0.123970
					CHANNELS 3 Zrotation Yrotation Xrotation
					End Site
					{
						OFFSET 0.000000 0.000000 0.000000
					}
				}
			}
			JOINT joint_13
			{
				OFFSET 3.362410 1.200890 -0.311210
				CHANNELS 3 Zrotation Yrotation Xrotation
				JOINT joint_14
				{
					OFFSET 4.983000 -0.000000 -0.000000
					CHANNELS 3 Zrotation Yrotation Xrotation
					JOINT joint_15
					{
						OFFSET 3.483560 -0.000000 -0.000000
						CHANNELS 3 Zrotation Yrotation Xrotation
						JOINT joint_16
						{
							OFFSET 0.000000 0.000000 0.000000
							CHANNELS 3 Zrotation Yrotation Xrotation
							End Site
							{
								OFFSET 0.000000 0.000000 0.000000
							}
						}
					}
				}
			}
			JOINT joint_17
			{
				OFFSET -3.136600 1.374050 -0.404650
				CHANNELS 3 Zrotation Yrotation Xrotation
				JOINT joint_18
				{
					OFFSET -5.241900 -0.000000 -0.000000
					CHANNELS 3 Zrotation Yrotation Xrotation
					JOINT joint_19
					{
						OFFSET -3.444170 -0.000000 -0.000000
						CHANNELS 3 Zrotation Yrotation Xrotation
						JOINT joint_20
						{
							OFFSET 0.000000 0.000000 0.000000
							CHANNELS 3 Zrotation Yrotation Xrotation
							End Site
							{
								OFFSET 0.000000 0.000000 0.000000
							}
						}
					}
				}
			}
		}
	}
}
MOTION
Frames: 10
Frame Time: 0.031667
-9.504039 13.213994 1.398569 -12.802456 78.930977 -3.364663 -1.218429 8.852849 -49.056685 0.529614 13.765663 30.292483 1.420184 0.099414 1.616872 0.709619 1.733106 6.601021 0.203674 -14.456028 -19.150195 -12.146873 -23.001602 73.003694 0.935985 -2.064155 2.370687 -4.067013 7.807584 -22.259349 1.293834 -5.137617 -5.576836 -2.091257 -3.304557 -3.791816 6.991731 0.276523 7.434182 2.506858 1.227110 -18.102563 -79.118603 -68.686907 23.679023 27.354034 -29.815419 -8.475124 8.675401 -2.722524 -0.776130 -6.674266 -0.459851 0.508537 78.690979 66.994583 53.834950 -33.245460 26.495761 -19.420941 -1.041284 -0.178522 2.815779 7.667114 -0.495321 0.506396 
-9.044865 13.234505 1.380784 -15.252708 78.662460 -5.019760 -1.444650 9.329755 -50.242919 0.978834 14.625624 32.549947 1.498717 -0.037286 1.784997 0.724064 1.512153 6.028568 0.172456 -14.321346 -18.088379 -12.317034 -23.191393 73.613686 0.975797 -2.042850 2.518889 -3.890006 7.565694 -21.543613 1.048800 -4.893319 -5.587684 -2.227698 -3.309181 -3.785431 6.780964 0.423756 7.421376 2.978054 1.301197 -17.704107 -83.282854 -67.689313 30.789913 27.278356 -28.954225 -8.917504 8.657371 -2.760053 -0.566919 -6.660779 -0.452173 0.500201 79.702328 64.971479 54.196756 -33.632632 26.608508 -20.030394 -0.895202 -0.297437 2.934163 7.650418 -0.487774 0.497999 
-8.582102 13.253814 1.375227 -16.009581 78.725639 -5.274573 -1.815683 9.809416 -51.311314 1.491265 15.501533 34.980341 1.587636 -0.147489 1.895605 0.760524 1.253509 5.344283 0.117247 -14.011062 -17.140681 -12.462605 -23.352925 74.111760 0.984229 -2.068622 2.634236 -3.618417 7.185694 -20.409030 0.806004 -4.663020 -5.636040 -2.386699 -3.307593 -3.764862 6.472834 0.564989 7.385927 3.515985 1.357358 -17.309155 -87.140143 -66.236456 36.574156 27.155105 -28.107046 -9.347721 8.629642 -2.792841 -0.455064 -6.647647 -0.442299 0.489748 80.584507 62.737082 54.188578 -34.163162 26.879971 -20.733201 -0.749047 -0.446066 3.045872 7.629670 -0.478485 0.487756 
-8.108243 13.300405 1.390545 -14.743326 79.047958 -3.570675 -2.323435 10.271375 -52.198377 2.011400 16.349411 37.372608 1.666739 -0.190762 1.992583 0.823028 0.958339 4.535861 0.046741 -13.533258 -16.357243 -12.562736 -23.497027 74.451123 0.970497 -2.140092 2.723873 -3.247542 6.567134 -18.565869 0.593391 -4.453904 -5.795125 -2.507367 -3.311102 -3.724263 6.070857 0.668082 7.313570 4.069532 1.381097 -17.012692 -90.095281 -64.620605 40.444830 26.930886 -27.250890 -9.756934 8.590013 -2.812637 -0.403387 -6.637232 -0.428757 0.475754 81.264198 60.463918 53.947568 -34.758690 27.190754 -21.517323 -0.627227 -0.603034 3.158062 7.602050 -0.466178 0.474494 
-7.625435 13.354099 1.398971 -12.545284 79.557106 -1.045868 -2.890008 10.684049 -52.881306 2.516205 17.133281 39.636976 1.736522 -0.194200 2.087866 0.924878 0.626750 3.626503 0.028307 -12.879088 -15.707767 -12.596976 -23.629203 74.587401 0.951804 -2.253933 2.779024 -2.771271 5.651894 -15.888887 0.388710 -4.269035 -5.996985 -2.551120 -3.331757 -3.698059 5.596809 0.762958 7.261429 4.661562 1.395472 -16.651258 -92.099973 -63.089428 42.551465 26.632016 -26.397527 -10.159857 8.546989 -2.811647 -0.332270 -6.627777 -0.415662 0.462049 81.809645 58.263698 53.759651 -35.361407 27.462791 -22.381687 -0.515350 -0.752224 3.318640 7.573941 -0.454577 0.461962 
-7.136471 13.432327 1.396847 -12.834898 80.075310 -0.522212 -3.409268 11.007436 -53.368594 2.973097 17.853289 41.778506 1.808635 -0.182860 2.170828 1.071543 0.263845 2.609089 0.109421 -12.069462 -15.181237 -12.597752 -23.727812 74.584882 0.913163 -2.349651 2.807340 -2.243498 4.527721 -12.659025 0.158081 -4.125102 -6.201768 -2.519943 -3.349960 -3.690441 5.042872 0.860403 7.149646 5.312876 1.402487 -16.281564 -93.314430 -61.788633 43.357626 26.291049 -25.509909 -10.561817 8.506376 -2.814668 -0.196631 -6.623970 -0.400453 0.446395 82.232877 56.317559 53.684817 -35.912480 27.618136 -23.272980 -0.431446 -0.883128 3.533672 7.542928 -0.441387 0.447989 
-6.670526 13.501952 1.377144 -15.472880 80.590347 -2.654320 -3.834232 11.203585 -53.668238 3.370653 18.498605 43.765251 1.873183 -0.190212 2.195830 1.279410 -0.165285 1.398373 0.255167 -11.134753 -14.800771 -12.546070 -23.798337 74.486457 0.831400 -2.441240 2.815161 -1.740717 3.408258 -9.493508 -0.105446 -3.972366 -6.385327 -2.420619 -3.345376 -3.670173 4.382761 0.944689 6.971382 6.009895 1.390278 -15.877154 -93.870955 -60.767344 43.321578 25.904659 -24.559420 -10.934501 8.479037 -2.825361 -0.034178 -6.625515 -0.384122 0.430741 82.546916 54.693664 53.743277 -36.381331 27.681811 -24.108783 -0.356465 -1.019826 3.786265 7.512581 -0.428275 0.434385 
-6.211817 13.555721 1.369746 -18.887506 81.359276 -5.776923 -4.200812 11.217116 -53.802059 3.766142 19.060495 45.699769 1.929372 -0.217374 2.122701 1.559098 -0.686576 -0.058051 0.448735 -10.145606 -14.662830 -12.490912 -23.852999 74.451945 0.725786 -2.514737 2.792836 -1.332300 2.537224 -7.058942 -0.352670 -3.789992 -6.470475 -2.339464 -3.291291 -3.675476 3.675959 0.948217 6.807814 6.717944 1.337298 -15.431790 -93.793607 -59.955827 42.755655 25.553986 -23.644815 -11.273086 8.457486 -2.874063 0.088979 -6.629666 -0.369048 0.418078 82.696709 53.355225 53.897853 -36.710094 27.678696 -24.819156 -0.282097 -1.110117 4.006861 7.487102 -0.417953 0.423846 
-5.754084 13.606577 1.388607 -22.488663 82.385277 -9.056768 -4.525742 11.084629 -53.763729 4.117090 19.551410 47.439835 1.972421 -0.244521 1.967514 1.882670 -1.238777 -1.604707 0.640275 -9.220060 -14.898156 -12.549368 -23.848311 74.674358 0.580944 -2.538164 2.778631 -1.037958 1.993859 -5.550185 -0.591296 -3.580321 -6.469644 -2.272303 -3.196889 -3.674057 2.927402 0.885855 6.616009 7.423188 1.236029 -15.077645 -93.346074 -59.370246 42.116538 25.279483 -22.797114 -11.576755 8.431665 -2.934858 0.167737 -6.638133 -0.353792 0.407083 82.792799 52.405584 54.090310 -36.888513 27.624355 -25.325594 -0.216022 -1.154660 4.100073 7.464611 -0.408858 0.414912 
-5.301321 13.663393 1.430833 -25.437986 83.286415 -11.655134 -4.922414 10.797947 -53.578387 4.372719 19.857637 48.965482 1.996326 -0.209453 1.844173 2.213221 -1.787177 -3.188126 0.899593 -8.379031 -15.614419 -12.686328 -23.793346 75.280869 0.463341 -2.523096 2.698994 -0.827464 1.693682 -4.710708 -0.789990 -3.395370 -6.430731 -2.247890 -3.012244 -3.671525 2.104481 0.765661 6.478049 8.046609 1.046151 -14.866845 -92.612360 -58.985771 41.605994 25.099424 -22.077643 -11.887668 8.420289 -2.973099 0.144638 -6.655109 -0.334193 0.392349 82.745022 51.801521 54.362299 -37.006676 27.509095 -25.683777 -0.193220 -1.103041 4.048564 7.439518 -0.396353 0.402492 
